<svg xmlns="http://www.w3.org/2000/svg" width="256" height="256" viewBox="0 0 100 100"><rect width="100" height="100" rx="20" fill="#7d6ee7"></rect><path d="M11.67 69.04L11.67 69.04Q15.41 69.04 17.28 67.30Q19.15 65.56 19.15 61.48L19.15 61.48L19.15 23.99Q19.74 23.82 20.93 23.61Q22.12 23.40 23.31 23.40L23.31 23.40Q25.78 23.40 27.01 24.33Q28.24 25.27 28.24 27.65L28.24 27.65L28.24 62.24Q28.24 66.07 27.09 68.79Q25.95 71.51 23.99 73.25Q22.04 74.99 19.36 75.80Q16.68 76.61 13.54 76.61L13.54 76.61Q8.78 76.61 6.31 75.33Q3.85 74.06 3.85 71.51L3.85 71.51Q3.85 70.23 4.36 69.25Q4.87 68.28 5.29 67.77L5.29 67.77Q6.74 68.28 8.35 68.66Q9.97 69.04 11.67 69.04ZM73.21 62.33L73.21 62.33Q72.53 62.92 71.34 63.35Q70.15 63.77 68.62 63.77L68.62 63.77Q66.83 63.77 65.51 63.22Q64.20 62.67 63.69 61.48L63.69 61.48Q59.78 52.47 56.93 45.50Q54.08 38.53 52.38 33.85L52.38 33.85L51.96 33.85Q51.70 39.89 51.49 44.94Q51.28 50.00 51.02 54.85Q50.77 59.69 50.47 64.71Q50.17 69.72 49.83 75.50L49.83 75.50Q49.15 75.76 48.09 75.97Q47.03 76.18 45.84 76.18L45.84 76.18Q41.25 76.18 41.25 72.44L41.25 72.44Q41.25 71.34 41.37 68.53Q41.50 65.73 41.71 61.86Q41.93 57.99 42.22 53.32Q42.52 48.64 42.86 43.84Q43.20 39.04 43.54 34.40Q43.88 29.77 44.22 25.86L44.22 25.86Q44.90 25.18 46.47 24.42Q48.05 23.65 50.34 23.65L50.34 23.65Q53.06 23.65 54.68 24.63Q56.29 25.61 57.23 27.56L57.23 27.56Q58.59 30.54 60.03 33.98Q61.48 37.42 62.92 40.95Q64.37 44.48 65.73 47.96Q67.09 51.45 68.36 54.51L68.36 54.51L68.79 54.51Q70.40 50.26 72.06 46.09Q73.72 41.93 75.29 38.10Q76.86 34.28 78.26 30.88Q79.67 27.48 80.86 24.76L80.86 24.76Q81.79 24.33 83.15 23.99Q84.51 23.65 85.96 23.65L85.96 23.65Q88.76 23.65 90.16 24.50Q91.57 25.35 91.99 26.97L91.99 26.97Q92.33 28.50 92.76 32.02Q93.18 35.55 93.61 40.14Q94.03 44.73 94.46 49.87Q94.88 55.02 95.22 59.82Q95.56 64.62 95.82 68.66Q96.07 72.70 96.16 74.99L96.16 74.99Q95.22 75.59 94.16 75.88Q93.10 76.18 91.65 76.18L91.65 76.18Q89.87 76.18 88.55 75.42Q87.23 74.65 87.06 72.53L87.06 72.53Q86.72 66.75 86.42 61.14Q86.13 55.53 85.87 50.51Q85.62 45.50 85.40 41.25Q85.19 37.00 85.02 34.02L85.02 34.02L84.68 34.02Q83.07 38.36 80.30 45.07Q77.54 51.79 73.21 62.33Z" fill="#fff"></path></svg>